<?xml version="1.0" encoding="utf-8"?><svg viewBox="0 0 256 90" xmlns="http://www.w3.org/2000/svg" xmlns:xlink="http://www.w3.org/1999/xlink"><style>:root>svg{display:none}:root>svg:target{display:block}</style><svg fill="none" viewBox="0 0 36 18" id="Air-Conditioner-Icon" xmlns="http://www.w3.org/2000/svg"><path d="M33.195 0C34.715 0 36 1.26 36 2.82v12.3c0 1.62-1.286 2.88-2.805 2.88H2.805C1.285 18 .058 16.74 0 15.24V2.88C0 1.26 1.286 0 2.805 0h30.39zM17.006 12.24h-6.428v3.66h6.428v-3.66zm8.474 0h-6.428v3.66h6.428v-3.66zm-16.948 0H2.104v2.94c0 .42.292.72.701.72h5.727v-3.66zm25.364 0h-6.428v3.66h5.727c.409 0 .76-.3.701-.72v-2.94zM33.195 2.1H2.805c-.409 0-.701.3-.701.72v7.38h31.85V2.88c0-.42-.35-.78-.76-.78zm-3.448 2.88c.584 0 1.052.48 1.052 1.08 0 .6-.468 1.08-1.052 1.08h-3.74c-.585 0-1.053-.48-1.053-1.08 0-.6.468-1.08 1.052-1.08h3.74z" fill="#52503B"/></svg><svg fill="none" viewBox="0 0 30 32" id="Airbnb-Icon" xmlns="http://www.w3.org/2000/svg"><path d="M15.04 24.36c-1.778-2.27-2.793-4.231-3.149-5.986-1.574-6.348 7.922-6.348 6.348 0-.406 1.755-1.473 3.82-3.2 5.987zm9.648 5.214c-2.945 1.29-5.89-.775-8.379-3.562 7.313-9.29 3.301-14.348-1.27-14.348-3.859 0-5.991 3.252-5.128 7.174.508 2.116 1.777 4.439 3.86 7.123-2.286 2.529-4.216 3.768-5.993 3.922-3.504.568-6.246-2.89-4.926-6.451 1.067-2.787 7.871-16.516 8.176-17.239 1.066-2.167 1.777-4.077 4.164-4.077 2.285 0 3.098 1.806 4.215 4.284 2.59 5.006 6.297 12.645 8.074 17.032.762 2.322-.203 5.058-2.793 6.142zm3.352-9.703C18.95.31 18.442 0 15.04 0c-3.2 0-4.57 2.27-5.942 5.161C1.583 20.387.923 22.451.77 22.71-.956 27.664 2.7 32 7.067 32c1.524 0 4.316-.412 7.922-4.438 4.164 4.593 7.16 4.438 7.922 4.438 4.418 0 8.074-4.387 6.297-9.29.05-.31-1.168-2.787-1.168-2.838z" fill="#fff"/></svg><svg fill="none" viewBox="0 0 64 60" id="Bath-Tub-Icon" xmlns="http://www.w3.org/2000/svg"><path d="M62.13 27.151H12.26V6.892c0-1.372 1.039-2.427 2.39-2.427h8v3.06c-2.182.317-3.949 2.216-3.949 4.537v4.643c0 1.055.831 1.9 1.87 1.9h7.377c1.039 0 1.87-.845 1.87-1.9v-4.643c0-2.11-1.454-3.904-3.428-4.431V2.566c0-1.055-.832-1.9-1.87-1.9h-9.87c-3.325 0-6.027 2.744-6.027 6.12v20.26H1.87c-1.039 0-1.87.844-1.87 1.899 0 1.055.831 1.9 1.87 1.9h2.494v8.44c0 6.226 4.571 11.396 10.493 12.24l-2.286 5.17c-.415.95 0 2.005.936 2.427.207.106.519.211.727.211.727 0 1.35-.422 1.662-1.055l2.91-6.542H48.103l2.909 6.542c.312.739.935 1.055 1.662 1.055.208 0 .52 0 .728-.21a1.827 1.827 0 00.935-2.427l-2.598-5.804c4.572-1.794 7.896-6.33 7.896-11.607v-8.44h2.494c1.039 0 1.87-.845 1.87-1.9 0-.95-.831-1.794-1.87-1.794zm-36.052-12.24h-3.74v-2.849c0-.527.415-.95.935-.95h1.87c.52 0 .935.423.935.95v2.85zM56 39.285c0 4.749-3.844 8.758-8.623 8.758H16.623C11.948 48.043 8 44.14 8 39.285v-8.44h48v8.44z" fill="#52503B"/></svg><svg fill="none" viewBox="0 0 46 64" id="Bed-Icon" xmlns="http://www.w3.org/2000/svg"><path d="M45.36 45.818v-.104-.104l-6.126-25.662V5.61c0-3.116-2.45-5.61-5.513-5.61H12.075C9.012 0 6.562 2.494 6.562 5.61v14.338L.435 45.61c0 .104-.102.312-.102.416V62.13c0 1.039.817 1.87 1.838 1.87 1.021 0 1.838-.831 1.838-1.87v-2.91c.408-1.142 6.535-3.947 18.991-3.947s18.583 2.909 18.991 3.948v2.909c0 1.039.817 1.87 1.838 1.87 1.02 0 1.838-.831 1.838-1.87v-16c-.205-.104-.307-.208-.307-.312zM9.727 22.026h26.24l5.31 22.234H4.416l5.31-22.234zm.408-16.416c0-1.039.817-1.974 1.94-1.974h21.646c1.02 0 1.94.832 1.94 1.974v12.78H10.135V5.61zm12.763 46.026c-5.718 0-14.192.728-18.991 3.117v-6.857h37.88v6.857c-4.697-2.39-13.171-3.117-18.89-3.117z" fill="#52503B"/></svg><svg fill="none" viewBox="0 0 36 16" id="Bread-Icon" xmlns="http://www.w3.org/2000/svg"><path d="M18.029.5C7.96.5 0 4.734 0 10.056c0 .484.059 1.029.234 1.573a3.524 3.524 0 002.283 2.298c2.985.968 8.897 1.573 15.453 1.573 6.556 0 12.469-.605 15.454-1.573a3.568 3.568 0 002.283-2.237l.058-.121c.117-.545.235-1.029.235-1.513C36.058 4.673 28.097.5 18.029.5zm15.863 10.464v.06a1.314 1.314 0 01-.937.908c-2.81.907-8.663 1.451-14.926 1.451S5.912 12.778 3.16 11.932c-.468-.182-.82-.484-.937-.908-.117-.302-.117-.665-.117-.967 0-2.117 2.049-4.113 5.268-5.505.586 2.601 2.4 4.476 4.566 4.476.586 0 1.054-.484 1.054-1.088 0-.605-.468-1.09-1.054-1.09-1.229 0-2.341-1.27-2.634-3.084a28.613 28.613 0 015.912-1.15c.351 2.965 2.107 6.352 4.683 6.352.585 0 1.054-.484 1.054-1.089s-.469-1.089-1.054-1.089c-1.112 0-2.341-2.117-2.634-4.355h.76c1.757 0 3.513.121 5.094.424.117 3.326 2.224 6.048 4.74 6.048.586 0 1.055-.484 1.055-1.088 0-.605-.469-1.09-1.054-1.09-1.346 0-2.459-1.572-2.693-3.507 5.151 1.27 8.78 3.81 8.78 6.653.06.484 0 .786-.058 1.089z" fill="#52503B"/></svg><svg fill="none" viewBox="0 0 36 34" id="Briefcase-Icon" xmlns="http://www.w3.org/2000/svg"><path d="M31.442 6.655h-6.254V4.603A4.109 4.109 0 0021.098.5h-6.195c-2.28 0-4.091 1.876-4.091 4.103v2.052H4.558C2.045 6.655 0 8.706 0 11.226v5.745a1.05 1.05 0 001.052 1.055h.526v11.137A4.321 4.321 0 005.903 33.5h24.194a4.321 4.321 0 004.325-4.337V18.026h.526A1.05 1.05 0 0036 16.97v-5.745c0-2.52-2.045-4.571-4.558-4.571zM12.857 4.603c0-1.114.935-2.051 2.046-2.051h6.136c1.11 0 2.045.937 2.045 2.051v2.052H12.857V4.603zM2.104 11.226c0-1.348 1.11-2.52 2.513-2.52H31.5c1.344 0 2.513 1.114 2.513 2.52v4.748H2.103v-4.748zm30.273 17.878a2.285 2.285 0 01-2.28 2.286H5.903a2.285 2.285 0 01-2.28-2.286V17.967h7.189v3.634a1.05 1.05 0 001.052 1.055 1.05 1.05 0 001.052-1.055v-3.634H23.2v3.634a1.05 1.05 0 001.052 1.055 1.05 1.05 0 001.052-1.055v-3.634h7.188v11.137h-.116z" fill="#52503B"/></svg><svg fill="none" viewBox="0 0 36 36" id="Coffee-Maker-Icon" xmlns="http://www.w3.org/2000/svg"><path d="M31.71 0H10.598C8.593 0 7.001 1.578 7.001 3.565V6.37a3.462 3.462 0 002.595 3.39v2.337c0 .585.472 1.052 1.061 1.052.59 0 1.062-.467 1.062-1.052V9.935h12.089c.826 0 1.533.701 1.533 1.52v13.09c0 .819-.707 1.52-1.533 1.52h-9.553a6.654 6.654 0 002.594-5.26c0-.584-.471-1.052-1.061-1.052h-11.5c-.59 0-1.061.468-1.061 1.052a6.654 6.654 0 002.595 5.26H4.347C2.342 26.065.75 27.643.75 29.63v2.805C.75 34.422 2.342 36 4.347 36h27.304c2.005 0 3.598-1.578 3.598-3.565V3.565C35.306 1.636 33.656 0 31.71 0zM14.608 21.799c-.471 2.104-2.359 3.623-4.6 3.623-2.24 0-4.127-1.578-4.6-3.623h9.2zm18.635 10.636c0 .818-.707 1.52-1.533 1.52H4.347c-.825 0-1.533-.702-1.533-1.52V29.63c0-.818.708-1.52 1.533-1.52H23.69c2.005 0 3.597-1.578 3.597-3.564V11.455c0-1.987-1.592-3.565-3.597-3.565H10.598c-.825 0-1.533-.702-1.533-1.52V3.565c0-.818.708-1.52 1.533-1.52h21.053c.826 0 1.534.702 1.534 1.52v28.87h.058z" fill="#52503B"/></svg><svg fill="none" viewBox="0 0 30 36" id="Cutlery-Icon" xmlns="http://www.w3.org/2000/svg"><path d="M23.613 0C27.07 0 29.941 2.81 30 6.38v12.586a1.85 1.85 0 01-1.875 1.873h-1.23v12.468c0 1.464-1.23 2.693-2.696 2.693H22.5c-1.465 0-2.695-1.23-2.695-2.693V1.873A1.85 1.85 0 0121.68 0h1.933zM6.328.059a1.05 1.05 0 011.055 1.053v8.956h3.281V1.171A1.05 1.05 0 0111.72.117c.586 0 .996.468 1.054.995v14.986c0 .878-.644 1.521-1.523 1.521H9.902v15.63c0 1.463-1.23 2.692-2.695 2.692h-1.64c-1.465 0-2.696-1.229-2.696-2.692V17.56H1.523C.645 17.561 0 16.917 0 16.039V1.112C0 .585.41.06.996.06a1.05 1.05 0 011.055 1.053v8.898h3.222V1.112A1.05 1.05 0 016.328.06zm18.516 20.78h-2.989v12.468a.65.65 0 00.645.644h1.7c.35 0 .644-.351.644-.702v-12.41zm-16.992-3.22h-2.93v15.688a.65.65 0 00.644.644h1.641a.65.65 0 00.645-.644V17.62zM23.555 2.05h-1.758V18.79h6.094V6.38c0-2.4-1.934-4.331-4.336-4.331zm-12.832 10.01H2.05v3.512h8.672v-3.512z" fill="#52503B"/></svg><svg fill="none" viewBox="0 0 46 64" id="Door-Icon" xmlns="http://www.w3.org/2000/svg"><path d="M39.704 0c3.187 0 5.86 2.602 5.963 5.932v52.032c0 3.33-2.673 6.036-5.963 6.036H6.296c-3.29 0-5.963-2.706-5.963-6.036V5.932C.333 2.602 3.006 0 6.193 0h33.511zm-.102 3.538H6.192c-1.336 0-2.364 1.145-2.364 2.394v52.032c0 1.353 1.131 2.394 2.365 2.394h33.409c1.336 0 2.364-1.145 2.364-2.394V5.932c0-1.353-1.13-2.394-2.364-2.394zm-5.449 24.247c1.85 0 3.495 1.561 3.495 3.539 0 1.977-1.541 3.538-3.495 3.538-1.953 0-3.495-1.561-3.495-3.538 0-1.978 1.542-3.539 3.495-3.539z" fill="#52503B"/></svg><svg fill="none" viewBox="0 0 18 32" id="Facebook-Icon" xmlns="http://www.w3.org/2000/svg"><path d="M11.129 32H7.194c-1.009 0-1.816-.855-1.816-1.912V18.113H2.149c-1.009 0-1.816-.855-1.816-1.912V12.73c0-1.057.807-1.912 1.816-1.912h3.128v-3.17C5.277 3.069 8.001 0 12.037 0h3.026c1.01 0 1.816.855 1.816 1.912v4.075c0 1.057-.807 1.912-1.816 1.912h-2.168v2.868h2.875c.605.05 1.11.302 1.462.705.354.453.505 1.056.404 1.61l-.605 3.421c-.101.906-.858 1.56-1.816 1.56h-2.32v12.025c0 1.006-.808 1.912-1.766 1.912zM6.235 16.352c.505 0 .908.403.908.906v12.83c0 .1.05.151.05.151h3.936s.05-.05.05-.15V17.156c0-.503.404-.905.908-.905h3.178s.05 0 .05-.05v-.051l.606-3.371c0-.1 0-.151-.05-.201 0 0-.051-.05-.101-.05h-3.733a.903.903 0 01-.908-.906V8.05c0-.905.15-1.912 1.866-1.912h2.068s.05-.05.05-.15V1.961c0-.1-.05-.15-.05-.15h-2.976c-3.027 0-4.994 2.314-4.994 5.886v4.076a.903.903 0 01-.908.905H2.149s-.05.05-.05.151v3.472c0 .1.05.15.05.15l4.086-.1z" fill="#fff"/></svg><svg fill="none" viewBox="0 0 36 28" id="Forest-Icon" xmlns="http://www.w3.org/2000/svg"><path d="M23.143 7.35l.265.01c1.224.093 2.224.82 2.715 1.948l6.838 16.177h1.987c.584 0 1.052.403 1.052.979a1.04 1.04 0 01-1.052 1.036H1.052C.468 27.5 0 27.097 0 26.521a1.04 1.04 0 011.052-1.036h1.286l5.96-14.392c.468-1.21 1.579-1.958 2.923-1.958 1.344.058 2.454.749 2.98 1.958l2.689 6.275 3.33-8.06c.468-1.209 1.579-1.957 2.923-1.957zm0 2.073l-.058.002a1.151 1.151 0 00-.994.69l-4.15 9.959 2.338 5.469h1.929V24.16c-1.169-.518-1.987-1.9-1.987-3.627 0-2.188 1.344-3.857 2.98-3.857 1.637 0 2.98 1.727 2.98 3.857 0 1.727-.759 3.109-1.928 3.627v1.382h6.487l-6.545-15.429c-.234-.633-.877-.69-1.052-.69zM11.22 11.208c-.175 0-.76.057-1.052.69L4.5 25.544h13.558l-5.785-13.644c-.234-.633-.877-.691-1.052-.691zm11.98 7.426c-.35 0-.935.691-.935 1.843 0 1.15.526 1.842.935 1.842.41 0 .935-.691.935-1.842 0-1.152-.584-1.843-.935-1.843zM30.8.5c2.045 0 3.681 1.612 3.681 3.627 0 2.015-1.694 3.627-3.681 3.627s-3.682-1.612-3.682-3.627C27.117 2.112 28.753.5 30.799.5zm0 2.072c-.877 0-1.637.691-1.637 1.612 0 .922.702 1.612 1.637 1.612s1.636-.69 1.636-1.612c0-.92-.76-1.612-1.636-1.612z" fill="#52503B"/></svg><svg fill="none" viewBox="0 0 24 36" id="Glass-Icon" xmlns="http://www.w3.org/2000/svg"><path d="M20.238 23.98a11.023 11.023 0 002.993-8.226l-.958-12.545C22.153 1.4 20.597 0 18.74 0H5.272C3.417 0 1.86 1.4 1.741 3.21L.783 15.753c-.24 3.034.838 6.01 2.993 8.227 1.856 1.983 4.43 3.209 7.183 3.442V33.9H6.29a1.06 1.06 0 00-1.077 1.05c0 .583.478 1.05 1.077 1.05h11.434a1.06 1.06 0 001.077-1.05 1.06 1.06 0 00-1.077-1.05h-4.67v-6.477c2.754-.233 5.328-1.459 7.184-3.442zM5.272 2.043h13.47c.717 0 1.376.584 1.436 1.284l.419 5.251H3.477l.419-5.251c0-.7.658-1.284 1.376-1.284zM2.938 15.87l.359-5.192h17.42l.359 5.192c.18 2.51-.659 4.843-2.395 6.71a9.26 9.26 0 01-6.704 2.86c-2.574 0-4.909-.993-6.705-2.86-1.676-1.808-2.514-4.2-2.334-6.71z" fill="#52503B"/></svg><svg fill="none" viewBox="0 0 30 36" id="Hanger-Icon" xmlns="http://www.w3.org/2000/svg"><path d="M28.252 24.02l-10.601-5.552c.116-.351 0-.819-.35-1.052-.408-.351-1.049-.293-1.456.116-.117.176-.583.293-1.107.176-.466-.117-.757-.468-.816-.994-.058-.76.292-1.285 1.165-1.636.583-.234.99-.818.932-1.461V9.818c2.214-.467 3.845-2.454 3.845-4.85A4.955 4.955 0 0014.913 0 4.955 4.955 0 009.96 4.968a4.946 4.946 0 003.961 4.85l.059 3.448c-1.457.76-2.272 2.046-2.098 3.624a3.38 3.38 0 00.525 1.52l-10.66 5.61c-.874.409-1.457 1.227-1.69 2.162v.058C0 26.474 0 26.708 0 26.942v5.785A3.262 3.262 0 003.262 36h23.476A3.262 3.262 0 0030 32.727v-5.785c0-1.286-.699-2.396-1.748-2.922zM12.058 4.968a2.889 2.889 0 012.913-2.923 2.89 2.89 0 012.913 2.923A2.889 2.889 0 0114.97 7.89a2.889 2.889 0 01-2.913-2.922zm2.272 14.785l.058-.058c.292.058.525.117.816.117.175 0 .35 0 .524-.059l10.719 5.61H3.553l10.777-5.61zm12.408 14.202H3.204a1.232 1.232 0 01-1.223-1.228v-5.26h25.98v5.26c0 .643-.582 1.228-1.223 1.228z" fill="#52503B"/></svg><svg fill="none" viewBox="0 0 32 32" id="Instagram-Icon" xmlns="http://www.w3.org/2000/svg"><path d="M24.038 0C28.422 0 32 3.533 32 7.924v16.101C32 28.416 28.472 32 24.088 32H7.962C3.578 32 0 28.467 0 24.076V7.924A7.9 7.9 0 017.912 0h16.126zm0 1.767H7.912c-3.377 0-6.148 2.776-6.148 6.157v16.152c0 3.432 2.771 6.208 6.148 6.208h16.176c3.377 0 6.148-2.776 6.148-6.208V7.975a6.199 6.199 0 00-6.198-6.208zM15.975 8.58c4.082 0 7.408 3.332 7.408 7.42s-3.326 7.42-7.408 7.42c-4.082 0-7.408-3.332-7.408-7.42s3.326-7.42 7.408-7.42zm0 1.767A5.64 5.64 0 0010.33 16a5.64 5.64 0 005.644 5.653A5.64 5.64 0 0021.619 16a5.64 5.64 0 00-5.644-5.653zm8.113-5.4c1.058 0 1.915.857 1.915 1.917a1.916 1.916 0 11-3.83 0c0-1.06.857-1.918 1.915-1.918z" fill="#fff"/></svg><svg fill="none" viewBox="0 0 36 36" id="Pizza-Icon" xmlns="http://www.w3.org/2000/svg"><path d="M35.863 20.672c-1.289-4.095-4.217-8.541-8.14-12.461-3.866-3.92-8.317-6.786-12.416-8.073-1.464-.468-3.104.292-3.631 1.755L.198 32.022c-.41 1.111-.176 2.281.644 3.1.585.586 1.288.878 2.05.878a3.32 3.32 0 001.054-.175l17.627-6.728c.059 0 .059 0 .117-.059l2.109-.819 10.248-3.92a2.906 2.906 0 001.816-3.627zM3.243 33.835c-.469.176-.82-.117-.937-.175-.117-.117-.41-.41-.176-.936l2.46-6.435c.585 1.287 1.815 2.164 3.338 2.164 1.991 0 3.63-1.638 3.63-3.627 0-1.99-1.639-3.627-3.63-3.627a3.42 3.42 0 00-1.523.35L10.973 9.5c.762.467 1.523.935 2.284 1.52a3.576 3.576 0 00-1.522 2.925c0 1.99 1.64 3.627 3.63 3.627a3.606 3.606 0 003.339-2.223c2.81 2.633 5.563 5.792 7.906 9.653l-1.406.527c0-1.99-1.64-3.627-3.63-3.627-1.992 0-3.632 1.638-3.632 3.627 0 .936.352 1.755.937 2.399L3.243 33.835zm3.045-9.01c0-.877.703-1.579 1.581-1.579.879 0 1.582.702 1.582 1.58 0 .877-.703 1.58-1.582 1.58a1.574 1.574 0 01-1.58-1.58zm10.659-10.998v.117c0 .878-.703 1.58-1.581 1.58a1.574 1.574 0 01-1.582-1.58c0-.819.586-1.462 1.406-1.58.585.469 1.171.937 1.757 1.463zm4.216 13.222c-.703-.175-1.23-.819-1.23-1.521 0-.878.703-1.58 1.582-1.58.878 0 1.58.702 1.58 1.58 0 .351-.116.644-.292.878l-1.64.643zm12.24-4.68l-4.86 1.872c-2.87-4.856-6.443-8.717-9.898-11.7-.058 0-.058-.06-.117-.06a35.386 35.386 0 00-2.46-1.93l-.058-.058c-1.523-1.112-2.987-2.106-4.334-2.926l1.874-4.972a.88.88 0 01.82-.585c.117 0 .176 0 .293.058 3.748 1.17 7.964 3.978 11.595 7.606 3.631 3.627 6.442 7.898 7.614 11.642.175.41-.059.877-.469 1.053z" fill="#52503B"/></svg><svg fill="none" viewBox="0 0 36 36" id="Stove-Icon" xmlns="http://www.w3.org/2000/svg"><path d="M33.136 0c1.52 0 2.806 1.23 2.864 2.751v30.44C36 34.77 34.714 36 33.195 36H2.805A2.808 2.808 0 010 33.19V2.751A2.746 2.746 0 012.747 0h30.39zm0 1.99H2.746c-.408 0-.759.351-.759.761v30.44c0 .409.35.76.76.76h30.39c.408 0 .76-.351.76-.76V2.75c0-.41-.352-.76-.76-.76zM22.442 29.62c.584 0 1.052.468 1.052 1.053 0 .586-.468 1.054-1.052 1.054h-.877a1.048 1.048 0 01-1.052-1.054c0-.585.467-1.053 1.052-1.053h.877zm5.435 0c.584 0 1.052.468 1.052 1.053 0 .586-.468 1.054-1.052 1.054H27a1.048 1.048 0 01-1.052-1.054c0-.585.468-1.053 1.052-1.053h.877zm-17.3-11.24c2.456 0 4.5 2.05 4.5 4.508s-2.044 4.507-4.5 4.507c-2.454 0-4.5-2.049-4.5-4.507 0-2.459 2.046-4.508 4.5-4.508zm14.728 0c2.513 0 4.5 2.05 4.5 4.508s-2.045 4.507-4.5 4.507c-2.454 0-4.5-2.049-4.5-4.507 0-2.459 2.046-4.508 4.5-4.508zm-14.727 2.05a2.471 2.471 0 00-2.455 2.458 2.471 2.471 0 002.455 2.458 2.471 2.471 0 002.455-2.458 2.471 2.471 0 00-2.455-2.459zm14.727 0a2.471 2.471 0 00-2.454 2.458 2.471 2.471 0 002.454 2.458 2.471 2.471 0 002.455-2.458 2.471 2.471 0 00-2.455-2.459zM10.578 5.326c2.455 0 4.5 1.99 4.5 4.507 0 2.459-2.045 4.508-4.5 4.508s-4.5-2.05-4.5-4.508 2.045-4.507 4.5-4.507zm14.727 0c2.513 0 4.5 1.99 4.5 4.507 0 2.459-2.045 4.508-4.5 4.508-2.454 0-4.5-2.05-4.5-4.508s2.046-4.507 4.5-4.507zM10.578 7.376a2.471 2.471 0 00-2.455 2.458 2.471 2.471 0 002.455 2.459 2.471 2.471 0 002.455-2.459 2.471 2.471 0 00-2.455-2.458zm14.727 0a2.471 2.471 0 00-2.454 2.458 2.471 2.471 0 002.454 2.459 2.471 2.471 0 002.455-2.459 2.471 2.471 0 00-2.455-2.458z" fill="#52503B"/></svg><svg fill="none" viewBox="0 0 36 30" id="Trees-Icon" xmlns="http://www.w3.org/2000/svg"><path d="M29.113 9.146l.195.01c.447.05.837.268 1.093.618l3.396 4.512c.351.457.41 1.085.117 1.6-.176.285-.41.513-.703.685l2.576 4.283c.293.514.293 1.085-.058 1.6-.234.513-.761.799-1.347.799h-4.215v4.969c0 .571-.468 1.028-1.054 1.028a1.037 1.037 0 01-1.053-1.028v-4.969h-4.274c-.527 0-1.054-.343-1.347-.8a1.464 1.464 0 010-1.542l2.576-4.34c-.293-.115-.527-.4-.702-.686a1.447 1.447 0 01.117-1.599l3.395-4.512c.293-.4.761-.628 1.288-.628zM9.677.75c.527 0 .995.228 1.288.628l5.503 7.197c.351.457.41 1.085.117 1.599a1.66 1.66 0 01-1.464.857l4.157 7.139a1.463 1.463 0 010 1.542c-.234.457-.761.742-1.347.742H10.79v7.71c0 .572-.468 1.029-1.054 1.029a1.037 1.037 0 01-1.054-1.028v-7.71H1.598c-.586 0-1.113-.343-1.406-.857-.292-.457-.234-1.085.059-1.542l4.566-7.025h-.526c-.586 0-1.113-.343-1.406-.857a1.447 1.447 0 01.118-1.6l5.386-7.196c.292-.4.76-.628 1.288-.628zm19.378 10.68l-2.635 3.484c.234.115.469.343.586.572a1.464 1.464 0 010 1.542l-2.46 4.169h9.017l-2.46-4.17a1.464 1.464 0 010-1.542c.118-.228.352-.456.586-.57l-2.634-3.485zM9.677 3.092L5.169 9.089h.41c.585 0 1.17.342 1.405.8.234.456.234 1.084-.059 1.541l-4.508 7.025h14.636l-4.157-7.082a1.464 1.464 0 010-1.542c.293-.4.762-.742 1.288-.742L9.678 3.092z" fill="#52503B"/></svg><svg fill="none" viewBox="0 0 36 36" id="Wi-Fi-Icon" xmlns="http://www.w3.org/2000/svg"><path d="M31.47 26.32c2.53 0 4.53 2.03 4.53 4.465 0 2.436-2.059 4.465-4.53 4.465-2.47 0-4.529-2.03-4.529-4.465s2.059-4.464 4.53-4.464zM33.119.75c.588 0 1.058.464 1.058 1.044 0 .58-.47 1.043-1.058 1.043-17.118 0-31.06 13.684-31 30.616 0 .58-.47 1.043-1.06 1.043A1.047 1.047 0 010 33.452C0 15.42 14.823.809 33.118.75zm-.06 9.451c.59 0 1.06.464 1.06 1.044a.984.984 0 01-1 .986c-11.883 0-21.53 9.509-21.47 21.164 0 .58-.471 1.043-1.06 1.043a1.047 1.047 0 01-1.059-1.044c0-12.756 10.53-23.193 23.53-23.193zm0 9.336c.59 0 1.06.463 1.06 1.043 0 .58-.412.986-1 .986-6.589 0-12 5.276-12 11.829 0 .58-.47 1.043-1.06 1.043A1.047 1.047 0 0119 33.394c0-7.653 6.294-13.857 14.059-13.857zm-1.587 8.871c-1.353 0-2.471 1.102-2.471 2.435 0 1.334 1.118 2.436 2.47 2.436 1.354 0 2.471-1.102 2.471-2.436 0-1.333-1.117-2.435-2.47-2.435z" fill="#52503B"/></svg><svg fill="none" viewBox="0 0 256 90" id="guest-house" xmlns="http://www.w3.org/2000/svg"><path fill-rule="evenodd" clip-rule="evenodd" d="M0 0l256 .008v89.955L89.441 90H0V0zm83.548 5.93H5.893v78.14h77.655V5.93zm166.581-.015H89.441v78.14H250.13V5.915zM168.804 47.65v14.374c0 2.17.5 3.746 1.485 4.73.999.983 2.223 1.478 3.692 1.478 1.462 0 2.693-.495 3.685-1.479.992-.983 1.485-2.56 1.485-4.729V47.65h4.893v14.48c0 3.43-.977 6.072-2.939 7.933-1.962 1.87-4.334 2.808-7.124 2.808-2.82 0-5.199-.939-7.146-2.808-1.947-1.861-2.924-4.503-2.924-7.934V47.65h4.893zm30.519-.255c1.708 0 3.394.375 5.073 1.125a15.954 15.954 0 014.505 3.018l-3.192 2.957c-.903-.735-1.955-1.328-3.171-1.786-1.223-.45-2.29-.676-3.215-.676h-.276a6.576 6.576 0 00-2.924.66c-.91.444-1.365 1.15-1.365 2.125 0 .758.358 1.321 1.074 1.674.724.36 1.746.623 3.066.788l1.992.218c2.767.33 4.923 1.088 6.467 2.267 1.552 1.17 2.328 2.972 2.328 5.397 0 2.334-.91 4.196-2.716 5.584-1.812 1.39-4.125 2.102-6.93 2.125h-.216c-2.335 0-4.409-.473-6.221-1.411-1.813-.939-3.245-2.147-4.305-3.626l3.186-2.95c.641.9 1.596 1.681 2.872 2.35 1.275.668 2.767.998 4.468.998h.216c1.44-.023 2.589-.308 3.454-.856.865-.548 1.298-1.283 1.298-2.214 0-.999-.395-1.72-1.171-2.155-.783-.442-1.917-.75-3.409-.945l-1.947-.218c-5.602-.668-8.4-2.942-8.4-6.846 0-2.29.866-4.113 2.604-5.472 1.738-1.373 3.923-2.079 6.579-2.132h.276zm-53.842.003c3.498 0 6.482 1.246 8.944 3.723 2.477 2.492 3.715 5.495 3.715 9.015 0 3.513-1.238 6.523-3.715 9.008-2.462 2.477-5.446 3.723-8.944 3.723-3.499 0-6.475-1.246-8.937-3.723-2.461-2.485-3.685-5.495-3.685-9.008 0-3.52 1.224-6.523 3.685-9.015 2.462-2.477 5.438-3.723 8.937-3.723zm-32.938.252v10.096h9.608V47.65h4.893v24.973h-4.893V62.384h-9.608v10.239h-4.894V47.65h4.894zm119.23-.003v4.639h-11.63v5.457h10.742v4.639h-10.742v5.6h11.63v4.638h-16.524V47.647h16.524zM72.412 17.729v5.907H23.506v42.696h43.035v-18.39H44.729v-5.908h27.683V72.24H17.635V17.729h54.776zm73.069 34.308c-2.201 0-4.036.758-5.513 2.282-1.484 1.524-2.215 3.46-2.215 5.817 0 2.372.731 4.324 2.215 5.833 1.477 1.509 3.312 2.267 5.513 2.267 2.223 0 4.065-.758 5.55-2.267 1.469-1.509 2.215-3.46 2.215-5.833 0-2.357-.746-4.293-2.237-5.817-1.485-1.524-3.327-2.282-5.528-2.282zM118.607 17.14c3.685 0 6.803 1.381 9.362 4.136l-3.193 2.957c-1.634-1.643-3.685-2.462-6.169-2.462-2.201 0-4.036.759-5.513 2.267-1.484 1.509-2.215 3.46-2.215 5.833 0 2.357.731 4.3 2.215 5.817 1.477 1.524 3.312 2.29 5.513 2.29 1.678 0 3.163-.466 4.468-1.397v-4.316h-4.543v-3.708h9.437v9.908c-2.559 2.763-5.677 4.144-9.362 4.144-3.499 0-6.475-1.246-8.937-3.73-2.462-2.478-3.685-5.488-3.685-9.008 0-3.513 1.223-6.523 3.685-9.008 2.462-2.484 5.438-3.723 8.937-3.723zm80.721-.04c1.701 0 3.394.376 5.065 1.126a15.58 15.58 0 014.506 3.018l-3.193 2.957c-.895-.735-1.954-1.336-3.17-1.786-1.216-.45-2.29-.676-3.208-.676h-.283a6.576 6.576 0 00-2.924.66c-.91.436-1.365 1.15-1.365 2.125 0 .758.358 1.321 1.081 1.674.724.36 1.738.623 3.066.788l1.984.21c2.768.33 4.924 1.089 6.468 2.267 1.552 1.171 2.327 2.98 2.327 5.405 0 2.327-.902 4.196-2.715 5.577-1.805 1.396-4.118 2.101-6.93 2.131h-.216c-2.335 0-4.409-.472-6.222-1.41-1.805-.947-3.237-2.148-4.304-3.626l3.193-2.958c.634.909 1.596 1.69 2.872 2.35 1.268.668 2.767 1.006 4.461 1.006h.216c1.447-.023 2.589-.316 3.454-.856.865-.548 1.298-1.291 1.298-2.214 0-.999-.396-1.72-1.171-2.162-.784-.436-1.91-.75-3.402-.946l-1.954-.21c-5.603-.668-8.4-2.95-8.4-6.853 0-2.282.865-4.106 2.603-5.473 1.739-1.366 3.932-2.071 6.58-2.124h.283zm-59.004.253v14.374c0 2.17.5 3.746 1.485 4.729.999.983 2.223 1.479 3.692 1.479 1.462 0 2.693-.496 3.685-1.48.992-.982 1.485-2.559 1.485-4.728V17.352h4.893V31.83c0 3.43-.977 6.073-2.939 7.934-1.962 1.87-4.334 2.807-7.124 2.807-2.82 0-5.199-.938-7.146-2.807-1.947-1.861-2.924-4.504-2.924-7.934v-14.48h4.893zm41.917 0v4.638h-11.63v5.457h10.742v4.64h-10.742v5.599h11.63v4.639h-16.524V17.35h16.524zm50.525-.003v4.638h-6.81v20.335h-4.894V21.987h-6.803V17.35h18.507z" fill="#fff"/></svg></svg>